# File created by Blade
# Date/Time:  Thu Jan 22 19:08:58 2015
# Frame Rate: 120.000 fps
#------------------------------------------------------
:FULLY-SPECIFIED
:DEGREES
1831
root -2.605992 33.049812 -0.299031 8.437374 -4.092918 2.349982
RightUpLeg -2.335613 -7.181599 -2.779964
RightLeg -0.546559 -0.000000 0.000000
RightFoot -11.247804 -5.235825 4.327273
RightToeBase 5.715439 -0.000000 -0.000000
LeftUpLeg -1.744396 5.933392 3.239882
LeftLeg 1.688870 -0.000000 -0.000000
LeftFoot -11.065063 1.924387 -12.418008
LeftToeBase 7.723043 -0.000000 -0.000000
Spine -8.526254 -1.726955 -0.596588
RightShoulder -17.351252 -14.676767 -26.002830
RightArm 20.209241 27.796952 39.421006
RightForeArm -10.254771 -0.000000 12.350947
RightHand 12.695327 -0.000000 5.974609
RightHandThumb1 -24.326973 -0.000000 -32.862282
LeftShoulder -24.114574 6.822022 29.350922
LeftArm 14.520417 -25.004524 -34.151651
LeftForeArm 19.449832 -0.000000 1.635934
LeftHand -1.649669 0.000000 -8.553726
LeftHandThumb1 -26.253704 0.000000 33.147579
Head -3.779066 5.130508 -1.120876
1832
root -2.610547 33.050187 -0.312806 8.447018 -4.122443 2.354543
RightUpLeg -2.353365 -7.166725 -2.769825
RightLeg -0.596967 -0.000000 0.000000
RightFoot -11.211911 -5.231539 4.314673
RightToeBase 5.703517 -0.000000 -0.000000
LeftUpLeg -1.786733 5.993494 3.232483
LeftLeg 1.717049 -0.000000 -0.000000
LeftFoot -11.060512 1.918413 -12.388491
LeftToeBase 7.741203 -0.000000 -0.000000
Spine -8.472360 -1.736202 -0.603409
RightShoulder -17.494091 -14.888996 -25.946569
RightArm 20.045339 28.081063 39.675536
RightForeArm -10.185629 -0.000000 12.404121
RightHand 12.777569 -0.000000 5.673339
RightHandThumb1 -24.326973 -0.000000 -32.862282
LeftShoulder -24.252187 6.984973 29.276585
LeftArm 14.319779 -25.175091 -34.345849
LeftForeArm 19.363430 -0.000000 1.654794
LeftHand -1.618128 0.000000 -8.586209
LeftHandThumb1 -26.253704 0.000000 33.147579
Head -3.780823 5.189209 -1.108024
1833
root -2.616897 33.051459 -0.331404 8.480300 -4.165040 2.349222
RightUpLeg -2.426766 -7.131922 -2.748355
RightLeg -0.596233 -0.000000 0.000000
RightFoot -11.182800 -5.233915 4.286168
RightToeBase 5.675633 -0.000000 -0.000000
LeftUpLeg -1.862751 6.047942 3.240155
LeftLeg 1.757508 -0.000000 -0.000000
LeftFoot -11.059136 1.906824 -12.402239
LeftToeBase 7.764207 -0.000000 -0.000000
Spine -8.432291 -1.721609 -0.611069
RightShoulder -17.635002 -15.045706 -25.891619
RightArm 19.822439 28.284976 39.891960
RightForeArm -9.986947 -0.000000 12.459467
RightHand 12.983452 -0.000000 5.530981
RightHandThumb1 -24.326973 -0.000000 -32.862282
LeftShoulder -24.377389 7.095138 29.206744
LeftArm 14.143956 -25.380054 -34.522909
LeftForeArm 19.239254 0.000000 1.590477
LeftHand -1.694976 -0.000000 -8.497170
LeftHandThumb1 -26.253704 0.000000 33.147579
Head -3.802242 5.217084 -1.086520
1834
root -2.622436 33.053509 -0.350429 8.504522 -4.199952 2.357918
RightUpLeg -2.493446 -7.101296 -2.744030
RightLeg -0.592844 -0.000000 0.000000
RightFoot -11.162042 -5.219950 4.263876
RightToeBase 5.742920 -0.000000 -0.000000
LeftUpLeg -1.938329 6.113375 3.236513
LeftLeg 1.802314 -0.000000 -0.000000
LeftFoot -11.032154 1.851169 -12.434739
LeftToeBase 7.769370 -0.000000 -0.000000
Spine -8.375658 -1.697925 -0.637763
RightShoulder -17.784279 -15.193778 -25.862968
RightArm 19.615369 28.515835 40.161437
RightForeArm -10.025297 0.000000 12.542219
RightHand 12.911246 -0.000000 5.244504
RightHandThumb1 -24.326973 -0.000000 -32.862282
LeftShoulder -24.515550 7.216169 29.135106
LeftArm 14.014156 -25.593382 -34.746243
LeftForeArm 19.145881 0.000000 1.573647
LeftHand -1.703272 0.000000 -8.376204
LeftHandThumb1 -26.253704 0.000000 33.147579
Head -3.833132 5.244397 -1.107492
1835
root -2.623033 33.054897 -0.363558 8.536088 -4.245226 2.366381
RightUpLeg -2.548757 -7.087494 -2.752295
RightLeg -0.612760 -0.000000 0.000000
RightFoot -11.124106 -5.177134 4.277557
RightToeBase 5.721403 -0.000000 -0.000000
LeftUpLeg -1.994834 6.167944 3.217487
LeftLeg 1.823051 -0.000000 -0.000000
LeftFoot -11.019199 1.856972 -12.398674
LeftToeBase 7.757982 -0.000000 -0.000000
Spine -8.369059 -1.699381 -0.625096
RightShoulder -17.916646 -15.429293 -25.829674
RightArm 19.519376 28.670373 40.384838
RightForeArm -9.866940 -0.000000 12.547767
RightHand 12.937584 -0.000000 5.291768
RightHandThumb1 -24.326973 -0.000000 -32.862282
LeftShoulder -24.645484 7.360522 29.018787
LeftArm 13.863512 -25.747403 -34.909796
LeftForeArm 19.169445 0.000000 1.530908
LeftHand -1.601491 -0.000000 -8.454729
LeftHandThumb1 -26.253704 0.000000 33.147579
Head -3.791827 5.212407 -1.103167
